<svg xmlns="http://www.w3.org/2000/svg" viewBox="0 0 720 340">
  <defs>
    <!-- Gradient for cursor -->
    <linearGradient id="cursorGrad" x1="0" y1="0" x2="0" y2="1">
      <stop offset="0%" stop-color="#CBA6F7"/>
      <stop offset="100%" stop-color="#89B4FA"/>
    </linearGradient>
    <!-- Editor shadow -->
    <filter id="shadow" x="-2%" y="-2%" width="104%" height="108%">
      <feDropShadow dx="0" dy="2" stdDeviation="6" flood-color="#000" flood-opacity="0.4"/>
    </filter>
    <!-- Clip path for typing reveal — line by line -->
    <clipPath id="reveal">
      <rect x="52" y="62" width="0" height="260">
        <animate attributeName="width" from="0" to="660" dur="6s" begin="0.5s" fill="freeze" calcMode="spline" keySplines="0.4 0 0.2 1" keyTimes="0;1"/>
      </rect>
    </clipPath>
    <!-- Cursor clip — matches reveal edge -->
    <clipPath id="cursorClip">
      <rect x="52" y="62" width="0" height="260">
        <animate attributeName="width" from="0" to="660" dur="6s" begin="0.5s" fill="freeze" calcMode="spline" keySplines="0.4 0 0.2 1" keyTimes="0;1"/>
      </rect>
    </clipPath>
  </defs>

  <!-- Background -->
  <rect width="720" height="340" rx="0" fill="#0e050f" opacity="0"/>

  <!-- Editor window -->
  <rect x="16" y="16" width="688" height="308" rx="10" fill="#1E1E2E" filter="url(#shadow)"/>
  <rect x="16" y="16" width="688" height="308" rx="10" fill="none" stroke="#45475A" stroke-width="1.5"/>

  <!-- Title bar -->
  <path d="M16 26 Q16 16 26 16 L710 16 Q720 16 720 26 L720 50 L16 50 Z" fill="#313244"/>
  <circle cx="38" cy="33" r="5.5" fill="#F38BA8"/>
  <circle cx="56" cy="33" r="5.5" fill="#FAB387"/>
  <circle cx="74" cy="33" r="5.5" fill="#A6E3A1"/>
  <!-- Tabs -->
  <rect x="100" y="20" width="105" height="26" rx="5" fill="#1E1E2E"/>
  <text x="152" y="37" text-anchor="middle" fill="#CDD6F4" font-family="Segoe UI, sans-serif" font-size="11" font-weight="600">wm_config.ini</text>

  <!-- Gutter line -->
  <line x1="46" y1="50" x2="46" y2="324" stroke="#45475A" stroke-width="1" opacity="0.4"/>

  <!-- Line numbers -->
  <g fill="#585B70" font-family="Cascadia Code, Consolas, monospace" font-size="11" text-anchor="end">
    <text x="40" y="78">1</text>
    <text x="40" y="96">2</text>
    <text x="40" y="114">3</text>
    <text x="40" y="132">4</text>
    <text x="40" y="156">5</text>
    <text x="40" y="174">6</text>
    <text x="40" y="192">7</text>
    <text x="40" y="210">8</text>
    <text x="40" y="234">9</text>
    <text x="40" y="252">10</text>
    <text x="40" y="270">11</text>
  </g>

  <!-- Code text (hidden, revealed by clip-path) -->
  <g clip-path="url(#reveal)" font-family="Cascadia Code, Consolas, monospace" font-size="12">
    <!-- Section headers -->
    <text x="56" y="78" fill="#CBA6F7" font-weight="bold">[Bar]</text>
    <!-- Keys -->
    <text x="56" y="96" fill="#89B4FA">Height</text>
    <text x="116" y="96" fill="#A6ADC8">=</text>
    <text x="128" y="96" fill="#A6E3A1">38</text>
    <text x="56" y="114" fill="#89B4FA">FontName</text>
    <text x="148" y="114" fill="#A6ADC8">=</text>
    <text x="160" y="114" fill="#A6E3A1">Segoe UI</text>

    <text x="56" y="138" fill="#585B70">; 渐变背景颜色（逗号分隔）</text>
    <text x="56" y="156" fill="#CBA6F7" font-weight="bold">[Theme]</text>
    <text x="56" y="174" fill="#89B4FA">Bg</text>
    <text x="76" y="174" fill="#A6ADC8">=</text>
    <text x="88" y="174" fill="#A6E3A1">0e050f</text>
    <text x="56" y="192" fill="#89B4FA">Text</text>
    <text x="92" y="192" fill="#A6ADC8">=</text>
    <text x="104" y="192" fill="#A6E3A1">e5e9f0</text>
    <text x="56" y="210" fill="#89B4FA">Active</text>
    <text x="108" y="210" fill="#A6ADC8">=</text>
    <text x="120" y="210" fill="#A6E3A1">744da9</text>

    <text x="56" y="234" fill="#CBA6F7" font-weight="bold">[Border]</text>
    <text x="56" y="252" fill="#89B4FA">FocusColor</text>
    <text x="140" y="252" fill="#A6ADC8">=</text>
    <text x="152" y="252" fill="#A6E3A1">A020F0,CBA6F7</text>
    <text x="56" y="270" fill="#89B4FA">DragColor</text>
    <text x="136" y="270" fill="#A6ADC8">=</text>
    <text x="148" y="270" fill="#A6E3A1">CBA6F7,89B4FA</text>
  </g>

  <!-- Blinking cursor -->
  <rect x="0" y="78" width="2" height="14" fill="url(#cursorGrad)" opacity="0">
    <animate attributeName="opacity" values="0;0;1;1;1;1;1;1;1;1;0;0" dur="1s" repeatCount="indefinite"/>
  </rect>
  <!-- Cursor stays at end of last typed line, blinks continuously -->
  <!-- Cursor static at end of typed text — stays at last character position -->
  <!-- We use a second cursor at a fixed position after typing completes -->

  <!-- Persistent cursor after animation -->
  <rect x="308" y="270" width="2" height="14" fill="url(#cursorGrad)" opacity="0">
    <animate attributeName="opacity" values="0;0;1;1;1;1;1;1;1;1;0;0" dur="1s" begin="6.5s" repeatCount="indefinite"/>
  </rect>

  <!-- "Alt+R to reload" hint that fades in after typing -->
  <g opacity="0">
    <animate attributeName="opacity" from="0" to="1" dur="0.6s" begin="7s" fill="freeze"/>
    <rect x="540" y="280" width="130" height="24" rx="12" fill="#313244" stroke="#CBA6F7" stroke-width="1"/>
    <text x="605" y="296" text-anchor="middle" fill="#CBA6F7" font-family="Segoe UI, sans-serif" font-size="11">Alt + R  重载生效</text>
  </g>
</svg>